<svg id="Layer_1" data-name="Layer 1" xmlns="http://www.w3.org/2000/svg" viewBox="0 0 576 576"><path d="M451.2,137.29H124.8A49.89,49.89,0,0,0,75.05,187V344.12a49.9,49.9,0,0,0,49.75,49.75h20.48l33.52,41.78a8.19,8.19,0,0,0,12.78,0l33.51-41.78H451.2A49.9,49.9,0,0,0,501,344.12V187A49.89,49.89,0,0,0,451.2,137.29ZM201,318.11A30.11,30.11,0,1,1,231.05,288,30.11,30.11,0,0,1,201,318.11Zm87.05,0A30.11,30.11,0,1,1,318.11,288,30.11,30.11,0,0,1,288,318.11Zm87.05,0A30.11,30.11,0,1,1,405.16,288,30.11,30.11,0,0,1,375.05,318.11Z"/></svg>