<svg id="Layer_1" data-name="Layer 1" xmlns="http://www.w3.org/2000/svg" viewBox="0 0 576 576"><path d="M468.49,420.26l.57,0V95.4c0-13.72-12.79-24.85-28.57-24.85h-305c-15.78,0-28.57,11.13-28.57,24.85V463.18c0,23.35,21.76,42.27,48.6,42.27H451.86c9.5,0,17.2-6.7,17.2-15v-2.77H453.24V420.26ZM186.58,146.83c0-7.45,7-13.54,15.56-13.54H373.86c8.56,0,15.56,6.09,15.56,13.54v57.08c0,7.44-7,13.53-15.56,13.53H202.14c-8.56,0-15.56-6.09-15.56-13.53Zm248.55,296h-264c-5,0-9.05,3.53-9.05,7.87s4.05,7.88,9.05,7.88h264v29.19H163.18c-17.62,0-31.91-12.42-31.91-27.74V420.26H435.13Z"/></svg>