<svg id="Layer_1" data-name="Layer 1" xmlns="http://www.w3.org/2000/svg" viewBox="0 0 576 576"><path d="M468.22,100.84H405.6v40.58H378.55V100.84H177.8v40.58H150.75V100.84h-43a25.39,25.39,0,0,0-25.31,25.31v68.57H493.53V126.15A25.39,25.39,0,0,0,468.22,100.84Z"/><path d="M82.47,449.85a25.39,25.39,0,0,0,25.31,25.31H468.22a25.39,25.39,0,0,0,25.31-25.31v-239H82.47Zm296.08-211h57.16V296H378.55Zm0,75.57h57.16v57.16H378.55ZM300,238.86h57.16V296H300Zm0,75.57h57.16v57.16H300ZM300,390h57.16v57.17H300Zm-81.16-75.56H276v57.16H218.84Zm0,75.56H276v57.17H218.84Zm-78.55-75.56h57.16v57.16H140.29Zm0,75.56h57.16v57.17H140.29Z"/></svg>