<svg id="Layer_1" data-name="Layer 1" xmlns="http://www.w3.org/2000/svg" viewBox="0 0 576 576"><path d="M475.23,379.54c-22.34,0-28.75-21-28.75-43.36,0-83.65,5.11-222.43-127.23-246.54V64.71a14,14,0,0,0-14-14H270.73a14,14,0,0,0-14,14V89.64c-134.42,24.11-127.23,173-127.23,246.54,0,22.34-6.42,43.36-28.76,43.36a14,14,0,0,0-14,14v42.18a14,14,0,0,0,14,14H475.23a14,14,0,0,0,14-14V393.51A14,14,0,0,0,475.23,379.54Z"/><path d="M288,525.26c48.92,0,89.52-26.79,97.38-62H190.63C198.49,498.47,239.1,525.26,288,525.26Z"/></svg>